<svg width="80" height="81" viewBox="0 0 80 81" fill="none" xmlns="http://www.w3.org/2000/svg">
<g clip-path="url(#clip0_324_173)">
<path d="M72.3858 40.7522C73.032 40.7522 73.5557 40.2284 73.5557 39.5823V38.8805C73.5557 35.6416 70.9205 33.0066 67.6817 33.0066H65.241V32.4151C66.4273 31.4619 67.3864 30.1303 67.505 28.5207L67.872 23.5375C68.0057 21.7231 67.3722 19.9181 66.1337 18.5851C64.1127 16.4096 60.8266 15.8258 58.1398 17.3126C57.6561 17.2536 57.6135 17.2689 54.9822 17.2689V16.6774C56.1685 15.7242 57.1276 14.3926 57.2462 12.783L57.6132 7.79985C57.7469 5.98546 57.1134 4.18044 55.8749 2.84757C53.2795 0.0537728 48.8476 0.0540846 46.2525 2.84757C45.0142 4.18044 44.3806 5.98546 44.5143 7.79985L44.8813 12.783C44.9999 14.3924 45.9588 15.7242 47.1452 16.6774V17.2689H44.7046C44.2532 17.2689 43.8071 17.3199 43.372 17.421C41.2926 16.1789 38.7147 16.175 36.6288 17.421C36.1937 17.3199 35.7476 17.2689 35.2962 17.2689H32.8555V16.6774C34.0418 15.7242 35.0009 14.3926 35.1195 12.783L35.4865 7.79985C35.6202 5.98546 34.9867 4.18044 33.7482 2.84757C31.153 0.0539287 26.7211 0.0539286 24.1259 2.84741C22.8875 4.18028 22.2539 5.98531 22.3874 7.79985L22.7546 12.783C22.8732 14.3924 23.8321 15.7242 25.0185 16.6774V17.2689C22.4804 17.2689 22.3389 17.2542 21.861 17.3126C19.1767 15.8272 15.8895 16.4082 13.8671 18.5851C12.6287 19.9179 11.9951 21.7231 12.1288 23.5375L12.4958 28.5207C12.6144 30.1301 13.5733 31.4619 14.7597 32.4151V33.0066H12.3183C9.07934 33.0066 6.44434 35.6417 6.44434 38.8805V55.39C6.44434 56.7719 7.56866 57.8962 8.9505 57.8962C11.157 57.8962 11.0327 57.8984 11.1484 57.8907V66.4596C11.1484 67.1057 11.6721 67.6295 12.3183 67.6295C12.9645 67.6295 13.4882 67.1057 13.4882 66.4596V41.1311C13.4882 40.485 12.9645 39.9612 12.3183 39.9612C11.6721 39.9612 11.1484 40.485 11.1484 41.1311V55.39C11.1484 55.4817 11.0737 55.5564 10.982 55.5564H8.9505C8.85863 55.5564 8.78407 55.4817 8.78407 55.39V38.8805C8.78407 36.9317 10.3695 35.3463 12.3183 35.3463H15.4434C16.3384 35.3702 17.0987 34.664 17.0987 33.7338C17.6818 33.9426 18.2299 34.0526 18.6776 34.0526C19.1252 34.0526 19.6733 33.9428 20.2564 33.7338C20.2564 34.6578 21.0139 35.3744 21.912 35.3463H25.0368C25.6598 35.3463 26.2591 35.5104 26.7822 35.8075C23.9167 36.8046 22.1726 39.5843 22.3868 42.492L22.754 47.4752C22.8725 49.0846 23.8315 50.4164 25.0179 51.3696V51.9611H22.5773C19.3383 51.9611 16.7033 54.5962 16.7033 57.835V74.3445C16.7033 75.0701 17.0134 75.7248 17.5078 76.1829V78.4127H13.4882V71.919C13.4882 71.2729 12.9645 70.7491 12.3183 70.7491C11.6721 70.7491 11.1484 71.2729 11.1484 71.919V78.6084C11.1484 79.7906 12.1102 80.7524 13.2924 80.7524H66.7074C67.8896 80.7524 68.8514 79.7906 68.8514 78.6084V57.8907C68.9662 57.8984 68.782 57.8962 71.0493 57.8962C72.4312 57.8962 73.5555 56.7719 73.5555 55.39V45.0417C73.5555 44.3956 73.0319 43.8718 72.3856 43.8718C71.7394 43.8718 71.2158 44.3956 71.2158 45.0417V55.39C71.2158 55.4817 71.1411 55.5564 71.0493 55.5564H69.018C68.9261 55.5564 68.8516 55.4817 68.8516 55.39V41.1311C68.8516 40.485 68.3279 39.9612 67.6817 39.9612C67.0355 39.9612 66.5118 40.485 66.5118 41.1311V78.4127H62.4922V76.1829C62.9866 75.7248 63.2967 75.0701 63.2967 74.3445V57.835C63.2967 54.5961 60.6616 51.9611 57.4227 51.9611H54.9821V51.3696C56.1683 50.4164 57.1275 49.0847 57.246 47.4752L57.6132 42.492C57.8272 39.5851 56.0841 36.8049 53.2178 35.8075C53.7409 35.5104 54.3402 35.3463 54.9632 35.3463H58.0885C58.9908 35.3753 59.7436 34.6526 59.7436 33.7338C60.3267 33.9426 60.8748 34.0526 61.3225 34.0526C61.7701 34.0526 62.3182 33.9428 62.9013 33.7338C62.9013 34.6595 63.6606 35.3742 64.5569 35.3463H67.6817C69.6305 35.3463 71.2159 36.9319 71.2159 38.8805V39.5823C71.2159 40.2284 71.7396 40.7522 72.3858 40.7522ZM47.9663 4.44015C49.6305 2.64869 52.4767 2.62748 54.1605 4.44015C54.9695 5.31068 55.3667 6.4428 55.2795 7.62811L54.9125 12.6113C54.772 14.5192 52.1078 15.9752 51.0634 15.9752C50.0189 15.9752 47.3549 14.5192 47.2142 12.6113L46.8472 7.62811C46.76 6.44296 47.1574 5.31068 47.9663 4.44015ZM43.097 20.1775C43.906 21.0482 44.3034 22.1803 44.2162 23.3655L43.849 28.3486C43.7085 30.2566 41.0443 31.7125 39.9998 31.7125C38.9555 31.7125 36.2914 30.2566 36.1507 28.3486L35.7836 23.3655C35.6963 22.1803 36.0937 21.0482 36.9027 20.1775C38.5709 18.3821 41.4166 18.3689 43.097 20.1775ZM43.2343 35.3461H46.3592C47.1092 35.3461 47.8233 35.5829 48.4124 36.0033C45.8408 37.1384 44.3123 39.7567 44.514 42.492L44.881 47.4752C44.9995 49.0846 45.9585 50.4164 47.1449 51.3696V51.9611H44.7043C42.7819 51.9611 41.0724 52.8893 40.0002 54.3209C38.9279 52.8892 37.2184 51.9611 35.296 51.9611H32.8554V51.3696C34.0416 50.4164 35.0008 49.0847 35.1193 47.4752L35.4863 42.492C35.6877 39.76 34.1625 37.1396 31.5879 36.0033C32.1769 35.5831 32.8911 35.3461 33.6411 35.3461H36.7663C37.6654 35.375 38.4215 34.6561 38.4215 33.7336C39.0045 33.9425 39.5526 34.0524 40.0003 34.0524C40.448 34.0524 40.9961 33.9426 41.5792 33.7336C41.5789 34.6594 42.3361 35.3728 43.2343 35.3461ZM25.8393 4.44015C27.5035 2.64885 30.3497 2.62763 32.0335 4.44015C32.8424 5.31084 33.2397 6.4428 33.1525 7.62811L32.7855 12.6113C32.645 14.5192 29.9808 15.9752 28.9363 15.9752C27.8919 15.9752 25.2279 14.5192 25.0872 12.6111L24.72 7.62796C24.6329 6.44296 25.0306 5.31068 25.8393 4.44015ZM14.8285 28.3488L14.4615 23.3656C14.3742 22.1805 14.7716 21.0484 15.5805 20.1777C17.2547 18.3754 20.1009 18.3758 21.7747 20.1777C22.5837 21.0484 22.9811 22.1805 22.8939 23.3656L22.5267 28.3488C22.3862 30.2568 19.722 31.7127 18.6776 31.7127C17.6331 31.7127 14.9691 30.2568 14.8285 28.3488ZM22.5961 33.0064V32.4149C23.7824 31.4617 24.7415 30.1301 24.8601 28.5205L25.2272 23.5374C25.3291 22.154 24.9848 20.776 24.2667 19.6086H25.7022C26.6189 19.635 27.3575 18.9045 27.3575 17.9961C27.9406 18.205 28.4887 18.3149 28.9363 18.3149C29.384 18.3149 29.9321 18.2051 30.5152 17.9961C30.5152 18.9239 31.2762 19.6356 32.1708 19.6086H34.4107C33.6926 20.776 33.3485 22.154 33.4503 23.5374L33.8173 28.5205C33.9359 30.1299 34.8949 31.4617 36.0813 32.4149V33.0064H33.6406C31.9856 33.0064 30.4353 33.7002 29.3385 34.8801C28.241 33.7005 26.6894 33.0064 25.0369 33.0064H22.5961ZM29.353 37.8021C29.372 37.8046 29.391 37.8065 29.4099 37.808C31.5938 38.0473 33.3244 39.9855 33.1525 42.3203L32.7855 47.3034C32.645 49.2114 29.9808 50.6673 28.9363 50.6673C27.8919 50.6673 25.2279 49.2114 25.0872 47.3034L24.72 42.3203C24.5292 39.7269 26.7039 37.5475 29.353 37.8021ZM19.8474 76.8508C21.3682 76.8508 21.2921 76.853 21.4072 76.8454V78.4127H19.8474V76.8508ZM43.5342 78.4127H41.1699V76.8454C41.2884 76.8532 43.3784 76.8557 43.5342 76.8454V78.4127ZM38.8301 78.4127H36.4658V76.8454C36.5852 76.8533 38.6731 76.8557 38.8301 76.8454V78.4127ZM58.5926 78.4127V76.8454C58.7082 76.853 58.6219 76.8508 60.1524 76.8508V78.4127H58.5926ZM54.2981 54.3008H57.4227C59.3716 54.3008 60.957 55.8863 60.957 57.835V74.3445C60.957 74.4362 60.8823 74.5109 60.7906 74.5109H58.7592C58.6673 74.5109 58.5928 74.4362 58.5928 74.3445V60.0855C58.5928 59.4395 58.0691 58.9157 57.4229 58.9157C56.7767 58.9157 56.253 59.4395 56.253 60.0855V78.4127H52.2334V77.2952C52.2334 76.6491 51.7097 76.1254 51.0635 76.1254C50.4173 76.1254 49.8936 76.6491 49.8936 77.2952V78.4127H45.874V60.0855C45.874 59.4395 45.3503 58.9157 44.7041 58.9157C44.0579 58.9157 43.5342 59.4395 43.5342 60.0855V74.3445C43.5342 74.4362 43.4595 74.5109 43.3678 74.5109H41.3365C41.2446 74.5109 41.17 74.4362 41.17 74.3445V66.8079C41.17 66.1618 40.6464 65.638 40.0002 65.638C39.3539 65.638 38.8303 66.1618 38.8303 66.8079V74.3445C38.8303 74.4362 38.7556 74.5109 38.6639 74.5109H36.6325C36.5406 74.5109 36.4661 74.4362 36.4661 74.3445V60.0855C36.4661 59.4395 35.9424 58.9157 35.2962 58.9157C34.65 58.9157 34.1263 59.4395 34.1263 60.0855V78.4127H30.1067V77.2952C30.1067 76.6491 29.583 76.1254 28.9368 76.1254C28.2906 76.1254 27.7669 76.6491 27.7669 77.2952V78.4127H23.7473V60.0855C23.7473 59.4395 23.2237 58.9157 22.5774 58.9157C21.9312 58.9157 21.4076 59.4395 21.4076 60.0855V74.3445C21.4076 74.4362 21.3328 74.5109 21.2411 74.5109H19.2098C19.1179 74.5109 19.0433 74.4362 19.0433 74.3445V57.835C19.0433 55.8862 20.6287 54.3008 22.5776 54.3008H25.7027C26.6133 54.3245 27.358 53.6039 27.358 52.6882C27.941 52.8971 28.4891 53.0071 28.9368 53.0071C29.3845 53.0071 29.9326 52.8973 30.5157 52.6882C30.5157 53.6146 31.2756 54.3286 32.1713 54.3008H35.296C37.2449 54.3008 38.8303 55.8863 38.8303 57.835V61.3485C38.8303 61.9946 39.3539 62.5184 40.0002 62.5184C40.6464 62.5184 41.17 61.9946 41.17 61.3485V57.835C41.17 55.8862 42.7554 54.3008 44.7043 54.3008H47.8294C48.74 54.3245 49.4847 53.6039 49.4847 52.6882C50.0677 52.8971 50.6158 53.0071 51.0635 53.0071C51.5112 53.0071 52.0593 52.8973 52.6424 52.6882C52.6422 53.6021 53.3872 54.3275 54.2981 54.3008ZM55.2797 42.3201L54.9125 47.3033C54.772 49.2113 52.1078 50.6672 51.0634 50.6672C50.0189 50.6672 47.3549 49.2113 47.2142 47.3033L46.8472 42.3201C46.6753 39.9865 48.4045 38.0473 50.5898 37.8079C50.6088 37.8063 50.6277 37.8044 50.6467 37.8019C53.3112 37.5458 55.4692 39.7455 55.2797 42.3201ZM57.4037 33.0064H54.9631C53.3107 33.0064 51.7592 33.7007 50.6615 34.8801C49.5645 33.7002 48.0144 33.0064 46.3594 33.0064H43.9187V32.4149C45.105 31.4617 46.0641 30.1301 46.1827 28.5205L46.5499 23.5374C46.6517 22.154 46.3075 20.776 45.5893 19.6086H47.8295C48.726 19.6355 49.4848 18.9223 49.4848 17.9961C50.0679 18.205 50.616 18.3149 51.0637 18.3149C51.5113 18.3149 52.0595 18.2051 52.6425 17.9961C52.6425 18.9237 53.4032 19.6356 54.298 19.6086H55.7335C55.0153 20.776 54.6711 22.154 54.7729 23.5374L55.1401 28.5205C55.2586 30.1299 56.2176 31.4617 57.404 32.4149V33.0064H57.4037ZM57.4731 28.3488L57.1059 23.3656C56.9877 21.7609 57.7672 20.3525 58.9645 19.543C58.9974 19.5236 59.0295 19.5026 59.0604 19.4799C60.6694 18.4553 62.9523 18.5985 64.4193 20.1775C65.2282 21.0482 65.6255 22.1803 65.5383 23.3655L65.1713 28.3486C65.0308 30.2566 62.3666 31.7125 61.3221 31.7125C60.2777 31.7125 57.6137 30.2568 57.4731 28.3488Z" fill="#0071BA"/>
</g>
<defs>
<clipPath id="clip0_324_173">
<rect width="80" height="80" fill="white" transform="translate(0 0.752441)"/>
</clipPath>
</defs>
</svg>
