<svg width="41" height="40" viewBox="0 0 41 40" fill="none" xmlns="http://www.w3.org/2000/svg">
<g clip-path="url(#clip0_324_408)">
<path d="M26.5835 5.26564V2.34375H27.7554C28.4031 2.34375 28.9273 1.81961 28.9273 1.17188C28.9273 0.524142 28.4031 0 27.7554 0C22.9921 0 23.1437 0 18.3804 0C17.7327 0 17.2085 0.524142 17.2085 1.17188C17.2085 1.81961 17.7327 2.34375 18.3804 2.34375H19.5523V5.26532C14.1499 6.80079 10.1772 11.7683 10.1772 17.6563C10.1772 24.7642 15.96 30.5469 23.0679 30.5469C23.8175 30.5469 24.5579 30.4602 25.2908 30.3321C24.6448 29.6069 24.2398 28.6622 24.2398 27.6172C24.2398 26.909 24.4381 26.254 24.7563 25.6729C24.2052 25.7882 23.6431 25.8594 23.0679 25.8594C18.5452 25.8594 14.8648 22.179 14.8648 17.6563C14.8648 13.1335 18.5452 9.45314 23.0679 9.45314C25.4074 9.45314 27.5664 10.4672 29.0899 12.1199C29.5806 11.9119 30.1196 11.7969 30.6851 11.7969H34.4954C32.8646 8.63361 29.9942 6.25197 26.5835 5.26564Z" fill="#0071BA"/>
<path d="M23.0679 11.7969C22.4201 11.7969 21.896 12.321 21.896 12.9688V16.4844H18.3804C17.7326 16.4844 17.2085 17.0085 17.2085 17.6563C17.2085 18.304 17.7326 18.8281 18.3804 18.8281H23.0679C23.7156 18.8281 24.2398 18.304 24.2398 17.6563V12.9688C24.2398 12.321 23.7156 11.7969 23.0679 11.7969Z" fill="#0071BA"/>
<path d="M38.9663 14.1406H30.6851C29.7143 14.1406 28.9272 14.9276 28.9272 15.8984C28.9272 16.8692 29.7143 17.6563 30.6851 17.6563H38.9663C39.9371 17.6563 40.7241 16.8692 40.7241 15.8984C40.7241 14.9276 39.9371 14.1406 38.9663 14.1406Z" fill="#0071BA"/>
<path d="M36.5445 20H28.3413C27.3705 20 26.5835 20.787 26.5835 21.7578C26.5835 22.7286 27.3705 23.5156 28.3413 23.5156H36.5445C37.5152 23.5156 38.3023 22.7286 38.3023 21.7578C38.3023 20.787 37.5152 20 36.5445 20Z" fill="#0071BA"/>
<path d="M34.2007 25.8594H28.3413C27.3705 25.8594 26.5835 26.6463 26.5835 27.6172C26.5835 28.588 27.3705 29.375 28.3413 29.375H34.2007C35.1715 29.375 35.9585 28.588 35.9585 27.6172C35.9585 26.6463 35.1715 25.8594 34.2007 25.8594Z" fill="#0071BA"/>
<path d="M31.8569 31.7188H28.3413C27.3705 31.7188 26.5835 32.5057 26.5835 33.4766C26.5835 34.4473 27.3705 35.2344 28.3413 35.2344H31.8569C32.8277 35.2344 33.6148 34.4473 33.6148 33.4766C33.6148 32.5057 32.8277 31.7188 31.8569 31.7188Z" fill="#0071BA"/>
<path d="M24.2398 33.4766C24.2398 33.2459 24.2713 33.0232 24.308 32.8028C23.895 32.8365 23.4843 32.8907 23.0679 32.8907C14.6678 32.8907 7.83345 26.0563 7.83345 17.6563C7.83345 12.1276 10.8042 7.29153 15.2233 4.6216C15.1642 4.40371 15.124 4.10348 15.0524 3.88871L14.8052 3.14598C14.6724 2.75004 14.3406 2.45363 13.932 2.36895C13.5257 2.28199 13.1011 2.4216 12.8219 2.73176L6.39259 9.95333C5.81016 10.601 5.4897 11.4365 5.4897 12.3062V22.7455C5.4897 23.6851 5.04532 24.5674 4.38157 25.2323L1.06742 28.5466C0.609687 29.0043 0.609687 29.7459 1.06742 30.2037L10.5206 39.6567C10.9783 40.1145 11.7199 40.1145 12.1777 39.6567L15.4919 36.2644C16.1568 35.6006 17.0392 35.2344 17.9787 35.2344H24.6512C24.3951 34.6995 24.2398 34.108 24.2398 33.4766Z" fill="#0071BA"/>
</g>
<defs>
<clipPath id="clip0_324_408">
<rect width="40" height="40" fill="white" transform="translate(0.724121)"/>
</clipPath>
</defs>
</svg>
