<svg width="41" height="40" viewBox="0 0 41 40" fill="none" xmlns="http://www.w3.org/2000/svg">
<path d="M35.1263 0.4125C34.8888 0.15 34.5538 0 34.1988 0H6.69883C6.34633 0 6.00883 0.15 5.77133 0.4125C5.53633 0.6725 5.41883 1.0225 5.45383 1.375L9.20383 38.875C9.26883 39.515 9.80633 40 10.4488 40H30.4488C31.0913 40 31.6288 39.515 31.6913 38.875L35.4413 1.375C35.4788 1.0225 35.3638 0.6725 35.1263 0.4125ZM31.7988 12.695C28.6213 13.7225 24.4863 14.1975 21.2413 11.535C17.1738 8.1975 12.1888 8.7725 8.80883 9.7775L8.08133 2.5H32.8163L31.7988 12.695Z" fill="#0071BA"/>
</svg>
