<svg width="41" height="40" viewBox="0 0 41 40" fill="none" xmlns="http://www.w3.org/2000/svg">
<g clip-path="url(#clip0_324_464)">
<path d="M36.6269 4.4539V9.29256C36.6269 11.4796 34.8527 13.242 32.666 13.242H30.1674C27.9805 13.242 26.1828 11.4796 26.1828 9.29256V4.43652H14.9207V9.29256C14.9207 11.4796 13.1231 13.242 10.9365 13.242H8.43739C6.25078 13.242 4.47666 11.4796 4.47666 9.29256V4.4539C2.56553 4.5115 0.995117 6.09289 0.995117 8.03663V36.3935C0.995117 38.3738 2.60019 40.0001 4.58048 40.0001H36.523C38.5003 40.0001 40.1084 38.3704 40.1084 36.3935V8.03663C40.1084 6.09289 38.538 4.5115 36.6269 4.4539ZM35.4664 34.6276C35.4664 35.4834 34.7725 36.1777 33.9164 36.1777H7.11887C6.26274 36.1777 5.56886 35.4834 5.56886 34.6276V19.9803C5.56886 19.1242 6.26266 18.4299 7.11887 18.4299H33.9163C34.7724 18.4299 35.4663 19.1242 35.4663 19.9803L35.4664 34.6276Z" fill="#0071BA"/>
<path d="M8.42874 10.6479H10.9003C11.6504 10.6479 12.2587 10.0406 12.2587 9.29038V1.35802C12.2587 0.607762 11.6504 0 10.9003 0H8.42874C7.67848 0 7.07031 0.607762 7.07031 1.35802V9.29038C7.07031 10.0406 7.67848 10.6479 8.42874 10.6479Z" fill="#0071BA"/>
<path d="M30.1357 10.6479H32.6072C33.3569 10.6479 33.9651 10.0406 33.9651 9.29038V1.35802C33.9652 0.607762 33.357 0 32.6072 0H30.1357C29.3856 0 28.7773 0.607762 28.7773 1.35802V9.29038C28.7773 10.0406 29.3856 10.6479 30.1357 10.6479Z" fill="#0071BA"/>
<path d="M9.05176 32.1183V30.8361H11.1938V24.9682L9.12718 26.2504V24.9079L11.2843 23.505H12.9134V30.8361H14.8895V32.1183H9.05176Z" fill="#0071BA"/>
<path d="M15.3451 32.3748L17.1251 23.0525H18.5732L16.8385 32.3748H15.3451Z" fill="#0071BA"/>
<path d="M19.1343 32.1183V30.9267C19.3555 30.4339 19.6723 29.9562 20.0846 29.4936C20.4969 29.021 21.0198 28.5282 21.6534 28.0153C22.2568 27.5226 22.6791 27.1203 22.9205 26.8086C23.1618 26.4868 23.2825 26.175 23.2825 25.8733C23.2825 25.1191 22.9054 24.742 22.1512 24.742C21.7891 24.742 21.5076 24.8425 21.3064 25.0437C21.1154 25.2448 20.9897 25.5415 20.9293 25.9337L19.2097 25.8281C19.3102 25.0336 19.6069 24.4252 20.0997 24.0028C20.6025 23.5805 21.2813 23.3693 22.1361 23.3693C23.0613 23.3693 23.7703 23.5855 24.263 24.0179C24.7658 24.4403 25.0173 25.0336 25.0173 25.7979C25.0173 26.2001 24.9368 26.5672 24.7759 26.8991C24.6251 27.2209 24.4239 27.5226 24.1725 27.8041C23.9211 28.0757 23.6446 28.3321 23.3429 28.5735C23.0412 28.8048 22.7445 29.0361 22.4529 29.2673C22.1713 29.4986 21.9149 29.7299 21.6836 29.9612C21.4523 30.1925 21.2763 30.4389 21.1556 30.7004H25.153V32.1183H19.1343Z" fill="#0071BA"/>
<path d="M31.4011 30.3685V32.1183H29.7569V30.3685H25.8499V29.0712L29.4853 23.505H31.4011V29.0863H32.5475V30.3685H31.4011ZM29.7569 26.2655C29.7569 26.0443 29.7619 25.8079 29.7719 25.5565C29.7921 25.2951 29.8071 25.1291 29.8172 25.0587C29.7066 25.29 29.5155 25.6219 29.244 26.0543L27.2377 29.0863H29.7569V26.2655Z" fill="#0071BA"/>
</g>
<defs>
<clipPath id="clip0_324_464">
<rect width="40" height="40" fill="white" transform="translate(0.551758)"/>
</clipPath>
</defs>
</svg>
