<svg width="40" height="40" viewBox="0 0 40 40" fill="none" xmlns="http://www.w3.org/2000/svg">
<g clip-path="url(#clip0_324_402)">
<path d="M39.13 2.37366C35.7005 2.80179 33.0469 5.72749 33.0469 9.27288V21.4604C33.0469 21.8919 33.3966 22.2416 33.8281 22.2416H36.4062L35.5002 35.1271C35.399 36.4361 36.4338 37.5541 37.7468 37.5541C38.9912 37.5541 40.0001 36.5453 40.0001 35.3008V3.15007C40 2.68343 39.593 2.31593 39.13 2.37366Z" fill="#0071BA"/>
<path d="M11.5625 14.1167V3.54102C11.5625 2.89383 11.0378 2.36914 10.3906 2.36914C9.74344 2.36914 9.21875 2.89383 9.21875 3.54102V12.9448H6.95312V3.54102C6.95312 2.89383 6.42844 2.36914 5.78125 2.36914C5.13406 2.36914 4.60938 2.89383 4.60938 3.54102V12.9448H2.34375V3.54102C2.34375 2.89383 1.81906 2.36914 1.17188 2.36914C0.524687 2.36914 0 2.89383 0 3.54102V14.1167C0 16.6044 1.57938 18.7298 3.78805 19.5437L3.01469 34.7885C2.94172 36.337 4.1775 37.6323 5.72773 37.6323C7.28945 37.6323 8.52945 36.3185 8.4393 34.7594L7.49672 19.6382C9.84953 18.9056 11.5625 16.7075 11.5625 14.1167Z" fill="#0071BA"/>
<path d="M20 25.0542C22.8046 25.0542 25.0781 22.7806 25.0781 19.9761C25.0781 17.1715 22.8046 14.8979 20 14.8979C17.1954 14.8979 14.9219 17.1715 14.9219 19.9761C14.9219 22.7806 17.1954 25.0542 20 25.0542Z" fill="#0071BA"/>
<path d="M30.703 21.4603V10.4446C30.722 9.55753 30.6401 8.82518 30.8426 7.66862C26.0686 3.45604 19.4853 2.50034 13.9061 4.73964V14.1165C13.9061 14.8043 13.8202 15.4789 13.6542 16.13C14.9573 13.9878 17.3143 12.554 19.9999 12.554C24.0923 12.554 27.4218 15.8835 27.4218 19.9759C27.4218 24.0683 24.0923 27.3978 19.9999 27.3978C15.223 27.3978 11.6525 22.9128 12.786 18.23C12.0741 19.4352 11.0911 20.4048 9.92871 21.0987L10.6432 33.4492C18.0474 38.6067 28.3028 36.8197 33.5111 29.2778L33.8741 24.5853H33.828C32.1049 24.5853 30.703 23.1834 30.703 21.4603Z" fill="#0071BA"/>
</g>
<defs>
<clipPath id="clip0_324_402">
<rect width="40" height="40" fill="white"/>
</clipPath>
</defs>
</svg>
