<svg width="28" height="28" viewBox="0 0 28 28" fill="none" xmlns="http://www.w3.org/2000/svg">
<path d="M8.24801 18.0143C8.24801 17.5493 7.92535 17.272 7.35605 17.272C7.12358 17.272 6.96614 17.2949 6.88379 17.3169V18.8088C6.9813 18.8307 7.10116 18.8381 7.26638 18.8381C7.8732 18.8381 8.24801 18.5315 8.24801 18.0143Z" fill="#0071BA"/>
<path d="M11.772 17.2876C11.5171 17.2876 11.3523 17.3096 11.2549 17.3324V20.6366C11.3524 20.6595 11.5098 20.6595 11.6522 20.6595C12.6864 20.6668 13.361 20.0975 13.361 18.8912C13.3683 17.8422 12.7536 17.2876 11.772 17.2876Z" fill="#0071BA"/>
<path d="M18.32 0H7.07407C5.43115 0 4.09398 1.33809 4.09398 2.98009V13.9999H3.80291C3.13982 13.9999 2.60205 14.5372 2.60205 15.2009V22.4836C2.60205 23.1472 3.13976 23.6844 3.80291 23.6844H4.09398V25.0199C4.09398 26.6636 5.43115 27.9999 7.07407 27.9999H22.4187C24.0605 27.9999 25.3979 26.6636 25.3979 25.0199V7.05308L18.32 0ZM5.75241 16.5151C6.10434 16.4557 6.59902 16.4108 7.29597 16.4108C8.0003 16.4108 8.5023 16.5453 8.83959 16.8153C9.16179 17.0698 9.37922 17.4899 9.37922 17.9842C9.37922 18.4784 9.21446 18.8986 8.91468 19.1832C8.52477 19.5502 7.94815 19.715 7.27362 19.715C7.12349 19.715 6.98893 19.7076 6.8837 19.693V21.4989H5.75241V16.5151ZM22.4187 26.1749H7.07407C6.43792 26.1749 5.9199 25.6569 5.9199 25.0199V23.6844H20.2242C20.8874 23.6844 21.4251 23.1472 21.4251 22.4836V15.2009C21.4251 14.5372 20.8874 13.9999 20.2242 13.9999H5.9199V2.98009C5.9199 2.34487 6.43798 1.82685 7.07407 1.82685L17.6372 1.81581V5.72033C17.6372 6.8608 18.5626 7.78702 19.7039 7.78702L23.5288 7.77605L23.5719 25.0198C23.5719 25.6569 23.0548 26.1749 22.4187 26.1749ZM10.1087 21.476V16.5151C10.5283 16.4484 11.0752 16.4108 11.6523 16.4108C12.6115 16.4108 13.2334 16.5829 13.7208 16.9499C14.2453 17.3398 14.5747 17.9613 14.5747 18.8536C14.5747 19.8202 14.2228 20.4874 13.7354 20.8992C13.2036 21.3413 12.3941 21.551 11.4051 21.551C10.8129 21.551 10.3933 21.5134 10.1087 21.476ZM18.2871 18.5389V19.4678H16.4735V21.4989H15.3271V16.4484H18.4143V17.3846H16.4735V18.5389H18.2871Z" fill="#0071BA"/>
</svg>
