<svg width="95" height="19" viewBox="0 0 95 19" fill="none" xmlns="http://www.w3.org/2000/svg">
<path d="M13.9974 1.09278L5.33458 18.2682H2.66729L5.64143 12.4488L0 1.09278H2.66729L6.89246 9.81006L11.3773 1.09278H13.9974Z" fill="white"/>
<path d="M47.9966 9.95142C47.9966 11.365 47.7291 12.7001 47.1941 13.9567C46.6748 15.1975 45.9509 16.2106 45.0225 16.9959C43.5905 18.2053 41.8123 18.8101 39.6879 18.8101C37.2016 18.8101 35.1952 17.9855 33.6688 16.3362C32.1424 14.6713 31.3792 12.4959 31.3792 9.81006C31.3792 7.1242 32.1424 4.95666 33.6688 3.30744C35.1952 1.64252 37.1937 0.810059 39.6643 0.810059C42.1821 0.810059 44.1963 1.64252 45.707 3.30744C47.2334 4.97236 47.9966 7.18702 47.9966 9.95142ZM45.8014 9.9043C45.8014 7.73676 45.2428 6.00116 44.1255 4.69749C43.0082 3.39383 41.5212 2.742 39.6643 2.742C37.8389 2.742 36.3676 3.39383 35.2503 4.69749C34.133 5.98545 33.5744 7.68964 33.5744 9.81006C33.5744 11.9305 34.133 13.6425 35.2503 14.9462C36.3833 16.2341 37.8625 16.8781 39.6879 16.8781C41.5133 16.8781 42.9846 16.2341 44.1019 14.9462C45.2349 13.6582 45.8014 11.9776 45.8014 9.9043Z" fill="white"/>
<path d="M95 18.2682H92.0731L84.4017 10.4226V18.2682H82.2065V1.09278H84.4017V8.30221L91.601 1.09278H94.2211L86.0776 9.22105L95 18.2682Z" fill="white"/>
<path fill-rule="evenodd" clip-rule="evenodd" d="M27.5319 9.76294C28.5232 8.86765 29.0189 7.65823 29.0189 6.13467C29.0189 4.51687 28.5547 3.27603 27.6263 2.41215C26.7136 1.53257 25.4075 1.09278 23.708 1.09278H16.6031V18.2682H18.7983V10.9881V9.05613L21.0879 10.9881H24.2036C25.5098 10.9881 26.6192 10.5797 27.5319 9.76294ZM18.7983 9.05613V3.02472H23.3775C24.4318 3.02472 25.2501 3.29173 25.8323 3.82577C26.4303 4.3598 26.7293 5.09802 26.7293 6.04042C26.7293 6.98283 26.4303 7.72105 25.8323 8.25509C25.2501 8.78912 24.4318 9.05613 23.3775 9.05613H21.0879H18.7983Z" fill="white"/>
<path fill-rule="evenodd" clip-rule="evenodd" d="M61.6475 9.76294C62.6389 8.86765 63.1345 7.65823 63.1345 6.13467C63.1345 4.51687 62.6703 3.27603 61.7419 2.41215C60.8292 1.53257 59.5231 1.09278 57.8236 1.09278H50.7187V18.2682H52.9139V10.9881V9.05613L55.2035 10.9881H58.3193C59.6254 10.9881 60.7348 10.5797 61.6475 9.76294ZM52.9139 9.05613V3.02472H57.4931C58.5474 3.02472 59.3657 3.29173 59.948 3.82577C60.5459 4.3598 60.8449 5.09802 60.8449 6.04042C60.8449 6.98283 60.5459 7.72105 59.948 8.25509C59.3657 8.78912 58.5474 9.05613 57.4931 9.05613H55.2035H52.9139Z" fill="white"/>
<path fill-rule="evenodd" clip-rule="evenodd" d="M66.4626 18.2682H78.8076V16.3362H68.6578V10.4462V8.51425L71.0005 10.4462H78.0287V8.51425H73.3432H71.0005H68.6578V3.02472H78.3827V1.09278H66.4626V18.2682Z" fill="white"/>
</svg>
