<svg width="80" height="81" viewBox="0 0 80 81" fill="none" xmlns="http://www.w3.org/2000/svg">
<g clip-path="url(#clip0_212_93)">
<path d="M20.3448 49.0321C19.9673 49.0512 19.6221 49.2512 19.4178 49.5694L5.1339 71.8107C4.58227 72.6699 4.54648 73.6764 5.03576 74.5724C5.52519 75.4686 6.39155 75.9828 7.41293 75.9828H51.6877C52.7091 75.9828 53.5755 75.4686 54.0649 74.5726C54.5543 73.6765 54.5186 72.6697 53.9669 71.8107L40.1169 50.2455C39.821 49.7847 39.2456 49.5905 38.7304 49.7774C35.1087 51.0938 31.0969 51.1625 27.4343 49.971C25.1439 49.2259 22.7592 48.9097 20.3448 49.0321ZM52.0078 73.4492C51.9121 73.6243 51.8018 73.6389 51.6877 73.6389H7.41293C7.29901 73.6389 7.18868 73.6243 7.09304 73.4492C6.99741 73.2737 7.0446 73.1732 7.10617 73.0774L10.9037 67.1645L17.3379 65.6395C20.4384 64.9045 23.679 65.037 26.7092 66.0228C31.4182 67.5545 36.4917 67.2642 40.995 65.2049L45.5893 63.1038L51.9947 73.0772C52.0561 73.173 52.1034 73.2737 52.0078 73.4492ZM38.6382 52.2805L44.3096 61.1114L40.0199 63.0729C36.0524 64.887 31.5829 65.143 27.4341 63.7934C23.9943 62.6746 20.3162 62.5242 16.7972 63.3584L12.7286 64.3227L21.058 51.353C22.98 51.3204 24.8801 51.6048 26.7092 52.1998C30.5678 53.455 34.7679 53.4781 38.6382 52.2805Z" fill="#0071BA"/>
<path d="M65.1017 35.0686V31.0853L66.0031 27.2733C66.1712 26.5619 66.0076 25.8251 65.5541 25.2518C65.1006 24.6784 64.4212 24.3498 63.6903 24.3498H49.0294C48.2984 24.3498 47.6191 24.6786 47.1655 25.2518C46.7118 25.825 46.5483 26.5618 46.7165 27.2733L47.6179 31.0853V35.0687C44.5501 36.2911 41.7617 38.156 39.4467 40.5263L39.2878 40.2789V26.6521C40.4023 26.0937 41.1696 24.9411 41.1696 23.6119C41.1696 21.7377 39.6448 20.213 37.7707 20.213H21.3296C19.4555 20.213 17.9308 21.7377 17.9308 23.6119C17.9308 24.9411 18.698 26.0937 19.8127 26.6521V31.0312C19.8127 31.6785 20.3373 32.2032 20.9847 32.2032C21.6322 32.2032 22.1568 31.6785 22.1568 31.0312V27.0106H36.9436V40.6227C36.9436 40.8473 37.0081 41.0671 37.1294 41.2561L38.2876 43.0594C38.2894 43.0622 38.2912 43.065 38.2931 43.0679L41.4313 47.9542C41.6552 48.3029 42.0329 48.4931 42.4185 48.4931C42.6354 48.4931 42.8548 48.4329 43.0507 48.3071C43.5953 47.9574 43.7533 47.2323 43.4036 46.6877L40.7504 42.5564C43.0778 40.0497 45.9762 38.1297 49.1845 36.9818C49.6506 36.8151 49.9617 36.3733 49.9617 35.8782V30.9484C49.9617 30.8576 49.9513 30.7671 49.9303 30.6787L48.9976 26.7337C48.9957 26.7257 48.994 26.7182 49.0036 26.7058C49.0133 26.6935 49.0211 26.6935 49.0293 26.6935H63.6901C63.6983 26.6935 63.7059 26.6935 63.7156 26.7058C63.7253 26.7182 63.7236 26.7257 63.7217 26.7337L62.7889 30.6787C62.768 30.767 62.7575 30.8576 62.7575 30.9484V35.8782C62.7575 36.3733 63.0685 36.8149 63.5348 36.9818C71.981 40.0039 77.6558 48.0639 77.6558 57.038C77.6558 68.5321 68.5023 77.927 57.1023 78.3198C57.5125 77.874 57.8763 77.3739 58.179 76.8198C58.3515 76.504 58.4982 76.181 58.6222 75.8533C61.5778 75.4982 64.4269 74.4439 66.9066 72.777C67.4439 72.4158 67.5867 71.6876 67.2256 71.1504C66.8643 70.6133 66.1362 70.4704 65.5991 70.8314C63.6384 72.1492 61.4144 73.03 59.0964 73.418C59.1266 71.9856 58.7313 70.5539 57.9113 69.277L49.3896 56.0084L51.9098 54.761C55.7457 52.8625 60.1844 52.7815 64.0872 54.5393C66.5021 55.6267 69.1763 56.124 71.8205 55.9782C71.8488 55.9766 71.8769 55.974 71.9051 55.9704L72.9242 55.8394C72.9532 56.2379 72.9677 56.6403 72.9677 57.0379C72.9677 60.9099 71.5995 64.6821 69.1155 67.6598C68.7009 68.1569 68.7675 68.8959 69.2646 69.3105C69.4838 69.4933 69.7499 69.5825 70.0148 69.5825C70.3503 69.5825 70.6835 69.4392 70.9154 69.1614C73.7506 65.7631 75.3119 61.4576 75.3119 57.0379C75.3119 56.5162 75.2898 55.9874 75.2464 55.4663C75.1975 54.8785 74.9061 54.3286 74.4471 53.9576C73.988 53.5863 73.3879 53.4168 72.8027 53.4916L71.6497 53.6398C69.3921 53.7579 67.111 53.3301 65.0498 52.4018C60.5054 50.355 55.3369 50.4491 50.8701 52.6601L48.1153 54.0237L46.1028 50.8902C45.7531 50.3455 45.0278 50.1875 44.4834 50.5374C43.9388 50.8871 43.7808 51.6122 44.1305 52.1568L55.9392 70.5436C56.9534 72.1227 57.0218 74.049 56.122 75.6961C55.4387 76.947 54.3176 77.8138 52.9957 78.159C52.9877 78.1611 52.9796 78.1625 52.9716 78.1647C52.5603 78.27 52.1304 78.3266 51.6877 78.3266H7.41275C5.5358 78.3266 3.87825 77.3432 2.97845 75.6961C2.07881 74.049 2.14726 72.1228 3.16145 70.5437L21.9709 41.2559C22.0922 41.067 22.1568 40.8471 22.1568 40.6226V36.0256C22.1568 35.3783 21.6322 34.8536 20.9847 34.8536C20.3373 34.8536 19.8127 35.3783 19.8127 36.0256V40.2784L1.18917 69.2773C-0.295542 71.5892 -0.395867 74.4089 0.921327 76.8201C2.23852 79.2314 4.66507 80.6711 7.41275 80.6711H51.6876C52.2597 80.6711 52.8166 80.6051 53.3539 80.4846C54.3523 80.6115 55.3621 80.6786 56.3597 80.6786C69.3951 80.6786 80 70.0735 80 57.0383C80 47.3545 74.0469 38.6295 65.1017 35.0686ZM21.3296 24.6667C20.748 24.6667 20.2748 24.1935 20.2748 23.6119C20.2748 23.0302 20.748 22.5571 21.3296 22.5571H37.7705C38.3522 22.5571 38.8254 23.0302 38.8254 23.6119C38.8254 24.1935 38.3522 24.6667 37.7705 24.6667H21.3296Z" fill="#0071BA"/>
<path d="M58.0508 62.4949C58.0508 65.0169 60.1026 67.0687 62.6246 67.0687C65.1467 67.0687 67.1985 65.0169 67.1985 62.4949C67.1985 59.9728 65.1467 57.921 62.6246 57.921C60.1026 57.921 58.0508 59.9728 58.0508 62.4949ZM64.8543 62.4949C64.8543 63.7244 63.8542 64.7247 62.6245 64.7247C61.3948 64.7247 60.3947 63.7244 60.3947 62.4949C60.3947 61.2653 61.3948 60.2651 62.6245 60.2651C63.8542 60.2651 64.8543 61.2653 64.8543 62.4949Z" fill="#0071BA"/>
<path d="M25.1 61.3653C27.1533 61.3653 28.8236 59.6949 28.8236 57.6417C28.8236 55.5885 27.1533 53.9181 25.1 53.9181C23.0468 53.9181 21.3765 55.5885 21.3765 57.6417C21.3765 59.6949 23.047 61.3653 25.1 61.3653ZM25.1 56.2621C25.8608 56.2621 26.4796 56.881 26.4796 57.6417C26.4796 58.4024 25.8608 59.0212 25.1 59.0212C24.3393 59.0212 23.7205 58.4024 23.7205 57.6417C23.7205 56.881 24.3393 56.2621 25.1 56.2621Z" fill="#0071BA"/>
<path d="M29.5504 17.3645C32.2491 17.3645 34.4443 15.1691 34.4443 12.4705C34.4443 9.77184 32.2489 7.57642 29.5504 7.57642C26.852 7.57642 24.6562 9.77184 24.6562 12.4705C24.6562 15.1689 26.8518 17.3645 29.5504 17.3645ZM29.5504 9.9203C30.9564 9.9203 32.1003 11.0642 32.1003 12.4703C32.1003 13.8764 30.9564 15.0203 29.5504 15.0203C28.1443 15.0203 27.0004 13.8764 27.0004 12.4703C27.0003 11.0643 28.1443 9.9203 29.5504 9.9203Z" fill="#0071BA"/>
<path d="M56.3929 20.9283C59.0915 20.9283 61.2869 18.7329 61.2869 16.0343C61.2869 13.3357 59.0914 11.1403 56.3929 11.1403C53.6944 11.1403 51.499 13.3357 51.499 16.0343C51.499 18.7329 53.6944 20.9283 56.3929 20.9283ZM56.3929 13.4843C57.799 13.4843 58.9429 14.6282 58.9429 16.0343C58.9429 17.4404 57.799 18.5843 56.3929 18.5843C54.9869 18.5843 53.8431 17.4404 53.8431 16.0343C53.8431 14.6282 54.9869 13.4843 56.3929 13.4843Z" fill="#0071BA"/>
<path d="M20.0848 8.21698C22.1224 8.21698 23.7801 6.55927 23.7801 4.52168C23.7801 2.48409 22.1224 0.826538 20.0848 0.826538C18.0472 0.826538 16.3896 2.48424 16.3896 4.52168C16.3895 6.55927 18.0472 8.21698 20.0848 8.21698ZM20.0848 3.17042C20.83 3.17042 21.4361 3.77659 21.4361 4.52152C21.4361 5.26662 20.8299 5.87278 20.0848 5.87278C19.3397 5.87278 18.7337 5.26662 18.7337 4.52152C18.7335 3.77659 19.3397 3.17042 20.0848 3.17042Z" fill="#0071BA"/>
</g>
<defs>
<clipPath id="clip0_212_93">
<rect width="80" height="80" fill="white" transform="translate(0 0.752441)"/>
</clipPath>
</defs>
</svg>
