<svg width="80" height="81" viewBox="0 0 80 81" fill="none" xmlns="http://www.w3.org/2000/svg">
<g clip-path="url(#clip0_212_101)">
<path d="M77.2007 9.13183C77.1823 8.40816 77.0729 7.60818 76.4013 7.16158C75.6334 6.65168 74.7481 6.99653 73.8921 7.33097C71.836 8.13312 69.7549 8.65445 67.3428 8.97184C66.7493 9.04988 66.3313 9.59433 66.4095 10.1879C66.4876 10.7814 67.032 11.1996 67.6256 11.1212C70.2153 10.7806 72.457 10.218 74.6803 9.35065C74.7595 9.31972 74.894 9.26726 75.0343 9.21595C75.0771 11.0119 74.604 12.402 73.5884 13.4649C71.9496 15.1799 68.8096 16.0927 64.2554 16.1779C63.6569 16.1891 63.1807 16.6834 63.192 17.2821C63.2031 17.8738 63.6861 18.3457 64.2754 18.3457C64.2823 18.3457 64.2893 18.3457 64.2962 18.3456C66.847 18.2979 68.9979 18.0089 70.775 17.4732C70.8055 18.943 70.4431 20.1142 69.6755 21.0265C69.1581 21.6416 68.4412 22.1509 67.531 22.554C67.5224 22.5579 67.5136 22.5614 67.5052 22.5656C65.9245 23.2593 63.763 23.6347 61.0395 23.6845C60.4408 23.6955 59.9646 24.1897 59.9756 24.7883C59.9864 25.3802 60.4696 25.8524 61.059 25.8524C61.0658 25.8524 61.0726 25.8524 61.0794 25.8522C63.3939 25.8099 65.3521 25.5493 66.9748 25.0658C66.8979 26.1047 66.5285 27.0573 65.8673 27.9092C64.4208 29.7729 61.8207 30.8316 59.788 31.0895C59.5418 30.6342 59.2642 30.1864 58.9556 29.7504C57.5658 27.7803 55.4278 26.0959 53.2346 25.244C50.8379 24.3173 48.8464 24.4984 47.7695 25.7414C46.7692 26.9009 46.8143 28.8433 47.2464 30.4698C46.3388 30.3252 45.4162 30.1591 44.4847 29.974V21.5377C47.8516 20.945 50.7594 19.113 52.7477 16.3078L52.7918 16.2458C55.5286 12.4458 58.5963 11.9167 62.6313 11.5841C63.228 11.535 63.6717 11.0113 63.6225 10.4147C63.5733 9.81807 63.0514 9.3732 62.4531 9.4235C58.1376 9.77919 54.2994 10.4427 51.0327 14.9787L50.9788 15.0541C49.4015 17.2796 47.1257 18.7683 44.4846 19.3289V16.3911C46.1895 15.2585 47.3164 13.3209 47.3164 11.1242C47.3161 7.64258 44.4836 4.81006 41.0021 4.81006C37.5185 4.81006 34.6841 7.64258 34.6841 11.1242C34.6841 13.3201 35.8107 15.2571 37.5157 16.3898V19.3291C34.8848 18.769 32.6109 17.2828 31.0265 15.0609L30.9683 14.9796C27.401 10.0252 23.2516 9.70707 18.4471 9.33866C15.4199 9.10654 11.9887 8.84335 8.11241 7.33112C7.25549 6.99667 6.36936 6.65081 5.60002 7.16202C4.92723 7.6092 4.81782 8.4086 4.79947 9.1301C4.73573 11.5134 5.42355 13.4757 6.84429 14.9625C7.46506 15.6122 8.21778 16.1657 9.10549 16.6265C8.89346 18.9876 9.41637 20.936 10.669 22.4241C11.2509 23.1152 11.9779 23.6999 12.8556 24.1801C12.7468 26.0515 13.2891 27.7999 14.4446 29.2773C16.2351 31.5668 19.0883 32.751 21.3301 33.1522C20.7573 34.9416 20.667 36.7502 21.1134 38.3452C21.8242 40.8849 23.7584 42.8549 26.8613 44.1999L32.4941 46.6446C30.7593 47.5656 29.2995 48.5688 28.1407 49.6412C27.7013 50.0478 27.6746 50.7337 28.0813 51.1731C28.295 51.404 28.5856 51.5208 28.8772 51.5208C29.1406 51.5208 29.4046 51.4254 29.6132 51.2325C30.9656 49.981 32.8109 48.8197 35.1023 47.7766L38.2767 49.1543L35.8592 50.204C32.1324 51.8197 30.3786 53.5405 30.4978 55.4646C30.6142 57.3431 32.5425 58.8837 36.0742 59.9195L38.2722 60.5652C38.277 60.5666 38.282 60.5681 38.2868 60.5695L49.1232 63.7522C52.6403 64.7834 54.7886 66.8955 55.0172 69.5468C55.1949 71.6115 54.1242 73.5845 52.3524 74.4562C50.5854 75.3257 49.4443 75.3131 49.1395 75.1991C49.1496 75.0501 49.2405 74.5938 49.882 73.701C51.2833 71.7577 51.7269 70.1168 51.2378 68.6849C50.7724 67.3223 49.4916 66.322 47.4311 65.7119L34.2613 61.8065C33.9941 61.7272 33.4029 61.5296 33.3626 61.5183C29.1249 60.055 26.8516 57.6881 27.2427 55.0867C27.3316 54.4946 26.9239 53.9426 26.3319 53.8536C25.737 53.7655 25.1878 54.1725 25.0987 54.7644C24.6364 57.8406 26.4753 60.59 30.1228 62.4886C27.0103 63.9803 25.0739 66.4447 24.8225 69.3606C24.5683 72.3088 26.1226 75.1384 28.6901 76.4014C29.8739 76.9839 31.2451 77.4237 32.4214 77.4237C33.2866 77.4236 34.0468 77.1858 34.5496 76.5918C35.1208 75.9171 35.4678 74.6483 33.8761 72.4329C32.9293 71.12 32.572 70.095 32.814 69.3868C33.0946 68.565 34.26 68.065 35.1888 67.7903L37.5156 67.1004V75.3234C37.5156 77.2458 39.0795 78.8098 41.0019 78.8098C42.922 78.8098 44.4841 77.2458 44.4841 75.3234V67.0991L46.8153 67.7904C47.7422 68.0647 48.9059 68.5642 49.1862 69.3855C49.4283 70.0941 49.0707 71.1194 48.1226 72.4345C46.532 74.6483 46.879 75.9173 47.4502 76.5919C47.953 77.186 48.7128 77.4239 49.5783 77.4239C50.7548 77.4239 52.1258 76.984 53.3097 76.4016C55.8771 75.1387 57.4314 72.3092 57.1773 69.3607C56.9254 66.438 54.9803 63.9687 51.8551 62.4782C54.9463 60.8336 56.727 58.5172 56.834 55.8941C56.9714 52.5333 54.3759 49.2265 49.6263 46.5938L55.1423 44.2C58.2438 42.8549 60.1765 40.8853 60.887 38.3461C61.3337 36.749 61.2427 34.9382 60.6685 33.1471C62.9279 32.7318 65.8002 31.5313 67.5797 29.2387C68.7178 27.7722 69.2515 26.0375 69.1441 24.1811C70.0235 23.7003 70.7517 23.1147 71.3343 22.4222C72.5862 20.934 73.1081 18.9861 72.895 16.6264C73.7825 16.1657 74.5351 15.6122 75.1557 14.9627C76.5764 13.4759 77.2644 11.5136 77.2007 9.13183ZM34.5733 65.7119C32.5104 66.3223 31.2283 67.3229 30.7626 68.6861C30.2735 70.1178 30.717 71.7584 32.1169 73.6996C32.7592 74.5938 32.8501 75.0502 32.8605 75.1992C32.5558 75.3131 31.4146 75.3257 29.6474 74.4563C27.8758 73.5847 26.8049 71.6117 26.9828 69.5469C27.2114 66.8956 29.3597 64.7836 32.8817 63.7508L33.0519 63.7C33.2467 63.7633 37.1895 64.9361 37.1895 64.9361L34.5733 65.7119ZM42.3163 75.3237C42.3163 76.0507 41.7268 76.6421 41.0021 76.6421C40.2751 76.6421 39.6837 76.0507 39.6837 75.3237V66.458L41.0025 66.067L42.3163 66.4567V75.3237ZM48.2962 32.8192C48.8539 33.5907 49.7749 34.4459 51.2735 34.9515C52.7986 35.466 53.2179 35.973 53.2266 36.1694C53.2469 36.6351 52.1255 37.7947 49.5685 38.9152L44.4843 41.1439V32.1859C45.7784 32.4358 47.0539 32.6468 48.2962 32.8192ZM41.0021 6.97803C43.2881 6.97803 45.1481 8.838 45.1481 11.1242C45.1481 13.4126 43.2883 15.2744 41.0021 15.2744C38.7137 15.2744 36.852 13.4126 36.852 11.1242C36.852 8.838 38.7137 6.97803 41.0021 6.97803ZM41.0021 17.4422C41.4527 17.4422 41.8921 17.3938 42.3163 17.3036V20.5936V20.5978V30.8534V30.8607V42.0944L40.9995 42.6716L39.6837 42.0948V30.8589C39.6837 30.8568 39.6837 30.8546 39.6837 30.8524V20.5978C39.6837 20.5963 39.6837 20.595 39.6837 20.5936V17.3029C40.1092 17.3935 40.55 17.4422 41.0021 17.4422ZM33.7038 32.8189C34.9601 32.6448 36.2359 32.4345 37.5157 32.1869V41.1443L32.4318 38.9155C29.8765 37.7945 28.756 36.6345 28.7765 36.1689C28.7852 35.9727 29.2039 35.4659 30.7255 34.9519C32.2233 34.4482 33.1445 33.593 33.7038 32.8189ZM16.1525 27.9419C15.4787 27.0803 15.1028 26.1167 15.0256 25.0657C16.6483 25.5494 18.6067 25.81 20.9214 25.8525C20.9281 25.8527 20.9349 25.8527 20.9417 25.8527C21.5311 25.8527 22.0143 25.3802 22.0251 24.7886C22.036 24.19 21.5597 23.6958 20.9612 23.6848C16.6502 23.6059 13.7455 22.7121 12.3281 21.0282C11.5601 20.1156 11.197 18.9442 11.2266 17.4736C13.0034 18.0092 15.1541 18.2979 17.7044 18.3457C17.7113 18.3458 17.7182 18.3458 17.7252 18.3458C18.3144 18.3458 18.7975 17.8737 18.8086 17.2822C18.8197 16.6836 18.3435 16.1893 17.7451 16.178C13.191 16.0929 10.051 15.1802 8.41217 13.465C7.39655 12.4021 6.9235 11.0119 6.96642 9.21465C7.10821 9.26625 7.24465 9.31958 7.32472 9.3508C11.5012 10.9804 15.1032 11.2566 18.2812 11.5003C22.8961 11.8541 26.2303 12.1098 29.2121 16.2509L29.2614 16.3197C31.2572 19.1185 34.162 20.9462 37.5157 21.538V29.9751C36.5919 30.1593 35.6698 30.325 34.7544 30.4706C35.1864 28.8452 35.232 26.9021 34.2312 25.7422C33.1578 24.497 31.1667 24.3157 28.7688 25.2448C26.575 26.0953 24.4352 27.7798 23.0448 29.7508C22.7358 30.1874 22.4579 30.6359 22.2116 31.0918C20.1997 30.8516 17.6122 29.8083 16.1525 27.9419ZM42.3163 50.9077V58.7209L41.0012 59.1074L39.6837 58.7205V50.9073L40.9991 50.3361L42.3163 50.9077ZM45.2782 52.1933C48.333 53.5177 49.3784 54.6826 49.3382 55.331C49.2965 56.0046 48.0363 57.0416 45.3148 57.8399L44.4843 58.0838V51.8486L45.2782 52.1933ZM32.6618 55.331C32.6217 54.6824 33.6671 53.5177 36.7224 52.1932L37.5157 51.8486V58.0837L36.6849 57.8397C33.9637 57.0415 32.7035 56.0045 32.6618 55.331ZM54.668 55.8059C54.5749 58.0815 52.4769 60.1177 48.8949 61.4235L44.8494 60.2362L45.9256 59.92C49.4575 58.884 51.3857 57.3434 51.5021 55.4649C51.6212 53.5408 49.8675 51.8199 46.1411 50.2044L27.7241 42.211C25.2493 41.1383 23.7276 39.6411 23.2013 37.761C22.6388 35.751 23.2422 33.2242 24.8155 31.0017C24.8159 31.0013 24.8162 31.0007 24.8166 31.0003C25.9706 29.3643 27.7409 27.9683 29.5525 27.266C30.9343 26.7307 32.1831 26.686 32.5897 27.1579C33.1121 27.7635 32.8872 29.8875 32.162 31.212C31.8616 31.7553 31.2487 32.4885 30.0333 32.8972C27.822 33.6438 26.6704 34.7126 26.6107 36.0735C26.5162 38.2267 29.2505 39.8871 31.5612 40.9007L46.198 47.3177C51.6215 49.6944 54.7879 52.8674 54.668 55.8059ZM58.7992 37.762C58.2733 39.6418 56.7528 41.1386 54.2796 42.2113L47.0779 45.3366C47.0747 45.3352 47.0715 45.3337 47.0684 45.3323L43.6992 43.8552L50.4385 40.9008C52.7505 39.8878 55.4867 38.2281 55.3922 36.0743C55.3325 34.7129 54.1799 33.644 51.9662 32.8972C50.7507 32.4872 50.1381 31.7546 49.8403 31.2162C49.113 29.8875 48.888 27.7635 49.409 27.1596C49.8243 26.6805 51.0473 26.7233 52.4509 27.2659C54.2605 27.9687 56.0299 29.3649 57.1847 31.0019C58.7581 33.2246 59.3616 35.7517 58.7992 37.762Z" fill="#0071BA"/>
</g>
<defs>
<clipPath id="clip0_212_101">
<rect width="74" height="74" fill="white" transform="translate(4 4.81006)"/>
</clipPath>
</defs>
</svg>
