<svg width="64" height="81" viewBox="0 0 64 81" fill="none" xmlns="http://www.w3.org/2000/svg">
<path d="M63.2395 19.3888C63.0229 19.0568 62.6524 18.856 62.2563 18.856H61.0014C60.4618 13.815 58.328 9.68905 54.647 6.57929C50.2164 2.8366 43.3719 0.866379 34.3045 0.723556C27.6449 0.618575 22.3251 1.56768 22.0907 1.6104C21.7855 1.66838 14.576 3.10882 11.5957 9.02437C10.3798 11.4371 10.2968 13.2706 11.3478 14.4742C13.4279 16.8558 18.9913 15.1188 20.1614 14.7184C20.2053 14.7055 20.2663 14.6872 20.3573 14.6598C24.0109 13.5605 27.579 12.5681 30.6759 11.7899C31.3046 11.6318 31.6861 10.994 31.528 10.3647C31.3699 9.73604 30.7315 9.35396 30.1034 9.51265C26.9723 10.2994 23.3682 11.3016 19.681 12.4112C19.5852 12.4399 19.5223 12.4588 19.4955 12.4668C19.4711 12.4735 19.4472 12.4808 19.4234 12.4887C16.9906 13.3274 13.8021 13.7137 13.116 12.9294C12.853 12.6279 12.8658 11.7209 13.6928 10.0803C16.1458 5.21088 22.4703 3.92853 22.5204 3.91876C22.7291 3.88092 43.4946 0.231611 53.1321 8.37312C56.2705 11.0251 58.1199 14.5469 58.6387 18.856H55.9745C55.4917 15.3403 53.9976 12.5638 51.4267 10.3922C46.7362 6.42976 39.3948 7.43196 34.2813 8.5312C33.6471 8.66731 33.2437 9.29171 33.3798 9.92586C33.5159 10.56 34.1409 10.9635 34.7745 10.8267C39.4046 9.83187 46.0111 8.8907 49.9112 12.186C51.9364 13.8962 53.1492 16.0874 53.599 18.856H1.92337C1.52664 18.856 1.15677 19.0562 0.940095 19.3888C0.723419 19.7208 0.689239 20.1401 0.849152 20.5033C0.957184 20.7481 3.57133 26.5653 10.4183 31.5434C10.9426 31.9249 11.6768 31.8083 12.0583 31.284C12.4392 30.7597 12.3232 30.0254 11.7989 29.644C7.61493 26.602 5.11858 23.1785 3.9058 21.204H60.2793C59.9241 21.785 59.4553 22.4924 58.8651 23.2792C58.8645 23.2798 58.8633 23.2804 58.8627 23.2816C58.6838 23.5197 58.4953 23.7632 58.2981 24.0104C58.2938 24.0159 58.2896 24.0214 58.2847 24.0269C58.2218 24.1056 58.1559 24.1856 58.0906 24.2649C58.046 24.3198 58.0027 24.3736 57.9563 24.4291C57.9441 24.4444 57.9307 24.4596 57.9179 24.4749C57.3002 25.214 56.5873 25.9959 55.7694 26.7912C52.1964 30.2647 45.8823 34.6464 36.0916 35.7976C35.5197 35.8647 35.0809 36.3365 35.0558 36.9114L35.054 36.942C34.1293 37.2203 33.2065 37.4901 32.2696 37.7629C32.2543 37.7672 32.2384 37.772 32.2232 37.7763C31.1941 38.0754 30.1828 38.3702 29.2019 38.668L29.1244 36.9114C29.0988 36.3365 28.6599 35.8647 28.0886 35.7969C23.6776 35.2787 19.5943 34.0672 15.9517 32.1965C15.375 31.9004 14.667 32.1281 14.3709 32.7049C14.0749 33.2817 14.3026 33.9891 14.8787 34.2851C18.4957 36.143 22.5088 37.3912 26.8215 38.0009L26.8838 39.4017C25.4092 39.8942 24.0457 40.4088 22.8561 40.9795C22.1883 41.2993 20.7986 41.9652 19.5565 43.0986C17.9281 44.5848 17.1023 46.3475 17.1023 48.3385C17.1023 51.8853 19.2092 54.7142 23.0361 56.3042C24.3087 56.8334 25.7693 57.2527 27.6882 57.636L27.8964 62.365C27.4649 62.412 27.051 62.4554 26.6659 62.4963C25.9652 62.5701 25.3036 62.6397 24.7225 62.7087L24.4552 62.7398C20.9005 63.1445 17.5893 63.8372 17.4319 66.1462C17.3879 66.7925 17.6021 67.3889 18.0514 67.8698C19.4076 69.3212 22.6553 69.4366 26.7678 69.4366C27.178 69.4366 27.6651 69.4317 28.2077 69.4171L28.2302 69.92C25.2993 70.4907 17.0388 72.583 11.5541 78.7622C11.2471 79.1077 11.1721 79.6014 11.3613 80.0232C11.5511 80.4443 11.9704 80.7153 12.4324 80.7153H51.7478C52.2098 80.7153 52.6291 80.4443 52.8183 80.0232C53.0082 79.6014 52.9325 79.1077 52.6261 78.7622C50.7322 76.6284 48.3158 74.779 45.4434 73.266C44.8703 72.9632 44.1599 73.1836 43.8577 73.7567C43.5556 74.3304 43.7753 75.0409 44.3491 75.343C46.0385 76.2335 47.5504 77.2455 48.8687 78.3673H15.3127C21.3485 73.2397 29.5138 72.0782 29.6041 72.066C30.2072 71.9854 30.6485 71.4581 30.621 70.8508L30.5532 69.3035C30.574 69.3023 30.5941 69.2999 30.6149 69.2987C30.8181 69.284 31.0232 69.2681 31.2313 69.2504C31.257 69.248 31.2832 69.2456 31.3089 69.2431C31.52 69.2248 31.7331 69.2053 31.9485 69.1839C32.2311 69.1552 32.5088 69.1241 32.7829 69.0905C32.7926 69.0893 32.8024 69.0887 32.8116 69.0869C33.0923 69.0533 33.3688 69.0161 33.6404 68.977L33.558 70.8508C33.5312 71.4575 33.9725 71.9842 34.5737 72.066C34.5975 72.0691 36.9949 72.4017 40.1181 73.5046C40.7297 73.7201 41.4005 73.4002 41.6165 72.7887C41.832 72.1771 41.5115 71.5063 40.9 71.2909C38.7961 70.5474 37.0151 70.133 35.9488 69.9224L36.0098 68.5516C39.2654 67.8344 41.7294 66.6906 43.3597 65.1336C44.9674 63.598 45.817 61.6552 45.817 59.5153C45.817 55.3899 42.4436 53.4911 40.4324 52.7263C39.4162 52.34 38.2541 52.0226 36.752 51.7229L37.0932 43.9934C41.8961 42.5554 46.9968 40.8311 51.3028 38.123C56.8491 34.6348 60.0816 30.0364 60.919 24.4529C62.5608 22.2221 63.2853 20.6052 63.3305 20.5027C63.4904 20.1401 63.4562 19.7208 63.2395 19.3888ZM39.5981 54.9218C42.1665 55.8983 43.4689 57.4438 43.4689 59.5159C43.4689 60.9991 42.8708 62.354 41.738 63.4362C40.289 64.8199 37.9239 65.8203 34.6945 66.4245C34.6835 66.4263 34.6725 66.4269 34.6615 66.4288C33.97 66.5582 33.2461 66.6686 32.5015 66.7596C32.2421 66.7907 31.9803 66.8206 31.7123 66.8481C31.5353 66.8658 31.3559 66.8823 31.1752 66.8981C31.1416 66.9012 31.1087 66.9042 31.0757 66.9073C30.9005 66.9219 30.7248 66.936 30.5471 66.9494C30.5166 66.9519 30.4861 66.9537 30.4556 66.9561C30.2761 66.9689 30.0949 66.9818 29.913 66.9927C29.891 66.994 29.8697 66.9952 29.8477 66.9964C29.6762 67.0068 29.5034 67.0165 29.3307 67.0251C28.323 67.0751 27.4362 67.0892 26.7599 67.0892C25.3469 67.0892 23.5891 67.0892 22.1438 66.928C20.5215 66.7474 19.9764 66.4373 19.8159 66.311C19.9599 66.1791 20.4104 65.8679 21.6756 65.5615C22.7853 65.2935 23.9968 65.1556 24.7207 65.0732L24.999 65.0408C25.5642 64.9737 26.2185 64.9047 26.9113 64.8321C27.6913 64.7497 28.4561 64.6667 29.2019 64.5794C29.219 64.5782 29.2361 64.5782 29.2532 64.5764C30.2823 64.4567 31.6189 64.2895 32.9837 64.0557C36.1044 63.529 38.5879 62.7917 39.9142 61.5234C40.5685 60.8984 40.7846 60.0829 40.5576 59.1009C40.2621 57.8203 38.7595 57.1813 36.5323 56.7144L36.6476 54.0984C37.8451 54.3493 38.7845 54.6123 39.5981 54.9218ZM29.5297 46.104C30.4513 45.8336 31.4035 45.5864 32.2683 45.3618C32.8598 45.2086 33.4231 45.0621 33.9285 44.9211C34.0469 44.8882 34.1629 44.8552 34.2746 44.8229C34.3472 44.8015 34.4217 44.7801 34.4949 44.7588C34.5669 44.7374 34.6396 44.7167 34.7122 44.6953L33.9718 61.4788C33.8888 61.4959 33.8052 61.513 33.721 61.5301C33.6929 61.5356 33.6642 61.5417 33.6355 61.5472C32.5412 61.7638 31.3717 61.9408 30.2346 62.0892L29.5297 46.104ZM36.3498 60.8495L36.4273 59.0978C37.7109 59.3951 38.1522 59.6441 38.295 59.7539C38.2992 59.7808 38.3011 59.8022 38.3005 59.8174C38.2986 59.8199 38.2956 59.8229 38.2919 59.826C37.8781 60.2215 37.1963 60.559 36.3498 60.8495ZM50.0528 36.1357C45.7712 38.8286 40.5252 40.5333 35.6479 41.9743C35.6399 41.9768 35.632 41.9774 35.6247 41.9798C34.9484 42.1794 34.277 42.3766 33.6184 42.5682C33.0636 42.7293 32.3904 42.9039 31.6775 43.0888C27.521 44.1673 22.8097 45.3899 22.8097 48.1908C22.8097 50.7921 25.7131 51.9219 27.4575 52.415L27.5808 55.216C26.1032 54.8967 24.924 54.5464 23.937 54.1362C20.9597 52.8991 19.4503 50.9484 19.4503 48.3385C19.4503 45.5394 21.9729 44.0062 23.8711 43.0968C25.1705 42.4742 26.7337 41.9096 28.4457 41.3615C28.4481 41.3609 28.4512 41.3609 28.4536 41.3597C29.5211 41.0185 30.6405 40.6853 31.752 40.3593C31.7813 40.3508 31.8106 40.3422 31.8393 40.3337C32.1878 40.2318 32.5357 40.1305 32.8799 40.0304C35.8267 39.1728 39.1641 38.2017 42.2983 36.9871C48.9652 35.1707 53.7723 31.9438 57.1348 28.7419C55.698 31.5995 53.3298 34.0745 50.0528 36.1357ZM27.3471 49.9065C25.939 49.4011 25.1583 48.7999 25.1583 48.1908C25.1583 48.1859 25.3018 47.6598 27.214 46.8877L27.3471 49.9065Z" fill="#0071BA"/>
</svg>
